#Comment line ignore any data following # character 
#Hierarchical Translation and Rotation (.htr) file 
[Header]	
#Header keywords are followed by a single value 
FileType HTR		#Single word string
DataType HTRS		#Translation followed by rotation and scale data
FileVersion 1		#integer
NumSegments 84		#integer
NumFrames 2		#integer
DataFrameRate 30		#integer, data frame rate in this file
EulerRotationOrder ZYX
CalibrationUnits mm
RotationUnits Degrees
GlobalAxisofGravity Y
BoneLengthAxis Y
ScaleFactor 1.00
[SegmentNames&Hierarchy]
#CHILD	PARENT
MASTER GLOBAL
root MASTER
chest root
L_mid_tent01 root
R_mid_tent01 root
spine01 root
Bip01_Neck chest
L_humerus chest
R_humerus chest
weapon_bone chest
Bip01_Head Bip01_Neck
eye_left_bone Bip01_Head
eye_right_bone Bip01_Head
L_forearm L_humerus
L_front_hand L_forearm
L_weapon_bone L_forearm
L_front_hand01_01 L_front_hand
L_front_hand02_01 L_front_hand
L_front_hand03_01 L_front_hand
L_front_hand01_02 L_front_hand01_01
L_front_hand02_02 L_front_hand02_01
L_front_hand03_02 L_front_hand03_01
R_forearm R_humerus
R_front_hand R_forearm
R_weapon_bone R_forearm
R_front_hand01_01 R_front_hand
R_front_hand02_01 R_front_hand
R_front_hand03_01 R_front_hand
R_front_hand01_02 R_front_hand01_01
R_front_hand02_02 R_front_hand02_01
R_front_hand03_02 R_front_hand03_01
null_rope01_connect L_mid_tent01
Rope1_Seg01 null_rope01_connect
Rope1_Seg02 Rope1_Seg01
Rope1_Seg03 Rope1_Seg02
Rope1_Seg04 Rope1_Seg03
Rope1_Seg05 Rope1_Seg04
Rope1_Seg06 Rope1_Seg05
Rope1_Seg07 Rope1_Seg06
Rope1_Seg09 Rope1_Seg07
L_mid_hand01 Rope1_Seg09
L_mid_hand02 Rope1_Seg09
L_mid_hand03 Rope1_Seg09
null_rope02_connect R_mid_tent01
Rope2_Seg01 null_rope02_connect
Rope2_Seg02 Rope2_Seg01
Rope2_Seg03 Rope2_Seg02
Rope2_Seg04 Rope2_Seg03
Rope2_Seg05 Rope2_Seg04
Rope2_Seg06 Rope2_Seg05
Rope2_Seg07 Rope2_Seg06
Rope2_Seg09 Rope2_Seg07
R_mid_hand01 Rope2_Seg09
R_mid_hand02 Rope2_Seg09
R_mid_hand03 Rope2_Seg09
spine02 spine01
spine03 spine02
pelvis spine03
null_rope03_connect pelvis
null_rope04_connect pelvis
Rope3_Seg01 null_rope03_connect
Rope3_Seg02 Rope3_Seg01
Rope3_Seg03 Rope3_Seg02
Rope3_Seg04 Rope3_Seg03
Rope3_Seg05 Rope3_Seg04
Rope3_Seg06 Rope3_Seg05
Rope3_Seg07 Rope3_Seg06
Rope3_Seg08 Rope3_Seg07
Rope3_Seg09 Rope3_Seg08
R_rear_hand01 Rope3_Seg09
R_rear_hand02 Rope3_Seg09
R_rear_hand03 Rope3_Seg09
Rope4_Seg01 null_rope04_connect
Rope4_Seg02 Rope4_Seg01
Rope4_Seg03 Rope4_Seg02
Rope4_Seg04 Rope4_Seg03
Rope4_Seg05 Rope4_Seg04
Rope4_Seg06 Rope4_Seg05
Rope4_Seg07 Rope4_Seg06
Rope4_Seg08 Rope4_Seg07
Rope4_Seg09 Rope4_Seg08
L_rear_hand01 Rope4_Seg09
L_rear_hand02 Rope4_Seg09
L_rear_hand03 Rope4_Seg09
[BasePosition]
#SegmentName Tx, Ty, Tz, Rx, Ry, Rz, BoneLength
MASTER 0.000000 0.000000 0.000000 -90.000000 0.000000 0.000000 10.000000 
root 0.000000 0.000000 0.000000 0.000000 0.000000 0.000000 10.000000 
chest 0.000000 0.000000 0.000000 0.000000 0.000000 0.000000 10.000000 
L_mid_tent01 0.000000 0.000000 0.000000 0.000000 0.000000 0.000000 10.000000 
R_mid_tent01 0.000000 0.000000 0.000000 0.000000 0.000000 0.000000 10.000000 
spine01 0.000000 0.000000 0.000000 0.000000 0.000000 0.000000 10.000000 
Bip01_Neck 0.000000 0.000000 0.000000 0.000000 0.000000 0.000000 10.000000 
L_humerus 0.000000 0.000000 0.000000 0.000000 0.000000 0.000000 10.000000 
R_humerus 0.000000 0.000000 0.000000 0.000000 0.000000 0.000000 10.000000 
weapon_bone 0.000000 0.000000 0.000000 0.000000 0.000000 0.000000 10.000000 
Bip01_Head 0.000000 0.000000 0.000000 0.000000 0.000000 0.000000 10.000000 
eye_left_bone 0.000000 0.000000 0.000000 0.000000 0.000000 0.000000 10.000000 
eye_right_bone 0.000000 0.000000 0.000000 0.000000 0.000000 0.000000 10.000000 
L_forearm 0.000000 0.000000 0.000000 0.000000 0.000000 0.000000 10.000000 
L_front_hand 0.000000 0.000000 0.000000 0.000000 0.000000 0.000000 10.000000 
L_weapon_bone 0.000000 0.000000 0.000000 0.000000 0.000000 0.000000 10.000000 
L_front_hand01_01 0.000000 0.000000 0.000000 0.000000 0.000000 0.000000 10.000000 
L_front_hand02_01 0.000000 0.000000 0.000000 0.000000 0.000000 0.000000 10.000000 
L_front_hand03_01 0.000000 0.000000 0.000000 0.000000 0.000000 0.000000 10.000000 
L_front_hand01_02 0.000000 0.000000 0.000000 0.000000 0.000000 0.000000 10.000000 
L_front_hand02_02 0.000000 0.000000 0.000000 0.000000 0.000000 0.000000 10.000000 
L_front_hand03_02 0.000000 0.000000 0.000000 0.000000 0.000000 0.000000 10.000000 
R_forearm 0.000000 0.000000 0.000000 0.000000 0.000000 0.000000 10.000000 
R_front_hand 0.000000 0.000000 0.000000 0.000000 0.000000 0.000000 10.000000 
R_weapon_bone 0.000000 0.000000 0.000000 0.000000 0.000000 0.000000 10.000000 
R_front_hand01_01 0.000000 0.000000 0.000000 0.000000 0.000000 0.000000 10.000000 
R_front_hand02_01 0.000000 0.000000 0.000000 0.000000 0.000000 0.000000 10.000000 
R_front_hand03_01 0.000000 0.000000 0.000000 0.000000 0.000000 0.000000 10.000000 
R_front_hand01_02 0.000000 0.000000 0.000000 0.000000 0.000000 0.000000 10.000000 
R_front_hand02_02 0.000000 0.000000 0.000000 0.000000 0.000000 0.000000 10.000000 
R_front_hand03_02 0.000000 0.000000 0.000000 0.000000 0.000000 0.000000 10.000000 
null_rope01_connect 0.000000 0.000000 0.000000 0.000000 0.000000 0.000000 10.000000 
Rope1_Seg01 0.000000 0.000000 0.000000 0.000000 0.000000 0.000000 10.000000 
Rope1_Seg02 0.000000 0.000000 0.000000 0.000000 0.000000 0.000000 10.000000 
Rope1_Seg03 0.000000 0.000000 0.000000 0.000000 0.000000 0.000000 10.000000 
Rope1_Seg04 0.000000 0.000000 0.000000 0.000000 0.000000 0.000000 10.000000 
Rope1_Seg05 0.000000 0.000000 0.000000 0.000000 0.000000 0.000000 10.000000 
Rope1_Seg06 0.000000 0.000000 0.000000 0.000000 0.000000 0.000000 10.000000 
Rope1_Seg07 0.000000 0.000000 0.000000 0.000000 0.000000 0.000000 10.000000 
Rope1_Seg09 0.000000 0.000000 0.000000 0.000000 0.000000 0.000000 10.000000 
L_mid_hand01 0.000000 0.000000 0.000000 0.000000 0.000000 0.000000 10.000000 
L_mid_hand02 0.000000 0.000000 0.000000 0.000000 0.000000 0.000000 10.000000 
L_mid_hand03 0.000000 0.000000 0.000000 0.000000 0.000000 0.000000 10.000000 
null_rope02_connect 0.000000 0.000000 0.000000 0.000000 0.000000 0.000000 10.000000 
Rope2_Seg01 0.000000 0.000000 0.000000 0.000000 0.000000 0.000000 10.000000 
Rope2_Seg02 0.000000 0.000000 0.000000 0.000000 0.000000 0.000000 10.000000 
Rope2_Seg03 0.000000 0.000000 0.000000 0.000000 0.000000 0.000000 10.000000 
Rope2_Seg04 0.000000 0.000000 0.000000 0.000000 0.000000 0.000000 10.000000 
Rope2_Seg05 0.000000 0.000000 0.000000 0.000000 0.000000 0.000000 10.000000 
Rope2_Seg06 0.000000 0.000000 0.000000 0.000000 0.000000 0.000000 10.000000 
Rope2_Seg07 0.000000 0.000000 0.000000 0.000000 0.000000 0.000000 10.000000 
Rope2_Seg09 0.000000 0.000000 0.000000 0.000000 0.000000 0.000000 10.000000 
R_mid_hand01 0.000000 0.000000 0.000000 0.000000 0.000000 0.000000 10.000000 
R_mid_hand02 0.000000 0.000000 0.000000 0.000000 0.000000 0.000000 10.000000 
R_mid_hand03 0.000000 0.000000 0.000000 0.000000 0.000000 0.000000 10.000000 
spine02 0.000000 0.000000 0.000000 0.000000 0.000000 0.000000 10.000000 
spine03 0.000000 0.000000 0.000000 0.000000 0.000000 0.000000 10.000000 
pelvis 0.000000 0.000000 0.000000 0.000000 0.000000 0.000000 10.000000 
null_rope03_connect 0.000000 0.000000 0.000000 0.000000 0.000000 0.000000 10.000000 
null_rope04_connect 0.000000 0.000000 0.000000 0.000000 0.000000 0.000000 10.000000 
Rope3_Seg01 0.000000 0.000000 0.000000 0.000000 0.000000 0.000000 10.000000 
Rope3_Seg02 0.000000 0.000000 0.000000 0.000000 0.000000 0.000000 10.000000 
Rope3_Seg03 0.000000 0.000000 0.000000 0.000000 0.000000 0.000000 10.000000 
Rope3_Seg04 0.000000 0.000000 0.000000 0.000000 0.000000 0.000000 10.000000 
Rope3_Seg05 0.000000 0.000000 0.000000 0.000000 0.000000 0.000000 10.000000 
Rope3_Seg06 0.000000 0.000000 0.000000 0.000000 0.000000 0.000000 10.000000 
Rope3_Seg07 0.000000 0.000000 0.000000 0.000000 0.000000 0.000000 10.000000 
Rope3_Seg08 0.000000 0.000000 0.000000 0.000000 0.000000 0.000000 10.000000 
Rope3_Seg09 0.000000 0.000000 0.000000 0.000000 0.000000 0.000000 10.000000 
R_rear_hand01 0.000000 0.000000 0.000000 0.000000 0.000000 0.000000 10.000000 
R_rear_hand02 0.000000 0.000000 0.000000 0.000000 0.000000 0.000000 10.000000 
R_rear_hand03 0.000000 0.000000 0.000000 0.000000 0.000000 0.000000 10.000000 
Rope4_Seg01 0.000000 0.000000 0.000000 0.000000 0.000000 0.000000 10.000000 
Rope4_Seg02 0.000000 0.000000 0.000000 0.000000 0.000000 0.000000 10.000000 
Rope4_Seg03 0.000000 0.000000 0.000000 0.000000 0.000000 0.000000 10.000000 
Rope4_Seg04 0.000000 0.000000 0.000000 0.000000 0.000000 0.000000 10.000000 
Rope4_Seg05 0.000000 0.000000 0.000000 0.000000 0.000000 0.000000 10.000000 
Rope4_Seg06 0.000000 0.000000 0.000000 0.000000 0.000000 0.000000 10.000000 
Rope4_Seg07 0.000000 0.000000 0.000000 0.000000 0.000000 0.000000 10.000000 
Rope4_Seg08 0.000000 0.000000 0.000000 0.000000 0.000000 0.000000 10.000000 
Rope4_Seg09 0.000000 0.000000 0.000000 0.000000 0.000000 0.000000 10.000000 
L_rear_hand01 0.000000 0.000000 0.000000 0.000000 0.000000 0.000000 10.000000 
L_rear_hand02 0.000000 0.000000 0.000000 0.000000 0.000000 0.000000 10.000000 
L_rear_hand03 0.000000 0.000000 0.000000 0.000000 0.000000 0.000000 10.000000 
#Beginning of Data. Separated by tabs
#Fr	Tx	Ty	Tz	Rx	Ry	Rz	SF
[MASTER]
28 -229.139725 935.758911 0.000000 0.001660 0.001660 0.001660 963.405273
29 -237.728287 684.001343 0.000000 0.001660 0.001660 0.001660 724.135681
[root]
28 -182.860458 -62.822109 1500.119751 -76.942474 -31.721888 -125.306259 1512.529053
29 -157.701324 -62.822109 1500.114868 -72.573044 -30.841883 -124.385750 1509.689087
[chest]
28 -84.512650 -34.090519 0.000000 6.429935 5.906847 145.871796 91.129311
29 -84.512650 -34.090519 0.000000 6.756513 5.248005 150.709457 91.129311
[L_mid_tent01]
28 27.299450 22.177563 -249.918274 95.042107 25.937523 -171.284775 252.381149
29 27.299452 22.177565 -249.918274 94.025070 27.546915 -172.862518 252.381149
[R_mid_tent01]
28 23.228794 24.509907 226.238495 161.866547 -26.119883 83.268448 228.744751
29 23.228794 24.509907 226.238495 161.929718 -26.161169 83.120430 228.744751
[spine01]
28 -0.361383 -0.195265 0.000000 0.001845 0.001451 13.654366 0.410763
29 -0.361383 -0.195265 0.000000 0.001845 0.001451 13.654368 0.410763
[Bip01_Neck]
28 165.484543 71.581718 0.000119 176.643677 -1.657966 43.431908 180.302734
29 165.484543 71.581718 0.000119 176.643677 -1.657967 43.431911 180.302734
[L_humerus]
28 -13.983130 -135.272980 -120.471481 -155.238861 46.449436 -59.788273 181.680161
29 -13.983130 -135.272980 -120.471481 -157.072510 44.027634 -61.762520 181.680161
[R_humerus]
28 -13.983309 -135.273102 125.287651 138.660049 -21.599688 -33.190990 184.909012
29 -13.983309 -135.273102 125.287651 141.650574 -20.654406 -36.869961 184.909012
[weapon_bone]
28 235.964890 -300.705902 0.000000 0.000000 -89.951546 -128.212341 382.234833
29 235.964890 -300.705902 0.000000 0.000000 -89.951546 -128.212341 382.234833
[Bip01_Head]
28 213.444351 185.715500 11.776985 1.795010 -3.474844 35.849739 283.173859
29 213.444366 185.715500 11.776985 0.845790 -3.975941 38.173080 283.173859
[eye_left_bone]
28 -24.626970 125.451866 -64.772606 0.000000 -90.000000 -99.840431 143.318359
29 -24.626970 125.451866 -64.772606 0.000000 -90.000000 -99.840431 143.318359
[eye_right_bone]
28 -24.626970 125.451866 64.327362 0.000000 -89.965736 80.156380 143.117676
29 -24.626970 125.451866 64.327362 0.000000 -89.965736 80.156380 143.117676
[L_forearm]
28 322.776093 0.000000 -0.000119 0.000304 -0.002327 -104.892700 322.776093
29 322.776093 0.000000 -0.000119 0.000298 -0.002328 -104.602592 322.776093
[L_front_hand]
28 241.149185 -0.042021 -3.300071 149.893951 -1.837326 -27.423067 241.171753
29 241.149185 -0.042021 -3.300071 149.893951 -1.837326 -27.423063 241.171753
[L_weapon_bone]
28 156.183838 0.000000 0.000000 0.000014 0.000007 0.000001 156.183838
29 156.183838 0.000000 0.000000 0.000014 0.000007 0.000001 156.183838
[L_front_hand01_01]
28 86.095154 20.947098 -0.655860 -0.366593 -0.477154 75.385513 88.609184
29 86.095154 20.947098 -0.655860 -0.314221 -0.508315 69.457268 88.609184
[L_front_hand02_01]
28 86.935165 -11.437475 24.513514 154.399704 -59.883820 -61.369476 91.046425
29 86.935165 -11.437475 24.513514 146.024582 -56.930286 -51.545952 91.046425
[L_front_hand03_01]
28 86.637497 -14.123976 -20.424902 -153.913773 58.118107 -62.702770 90.126129
29 86.637497 -14.123976 -20.424902 -146.109741 55.147018 -53.367893 90.126129
[L_front_hand01_02]
28 71.020905 -0.000179 0.000030 0.001534 0.001777 -8.379025 71.020905
29 71.020905 -0.000179 0.000030 0.001284 0.001965 -23.693668 71.020905
[L_front_hand02_02]
28 71.020927 -0.000119 0.000060 0.001534 0.001777 -8.379025 71.020927
29 71.020927 -0.000119 0.000060 0.001284 0.001965 -23.693668 71.020927
[L_front_hand03_02]
28 71.020905 -0.000060 0.000060 0.001534 0.001777 -8.379025 71.020905
29 71.020905 -0.000060 0.000060 0.001284 0.001965 -23.693668 71.020905
[R_forearm]
28 322.776428 -0.000060 0.000030 0.188471 -0.099805 -63.321754 322.776428
29 322.776428 -0.000060 0.000030 0.185902 -0.106185 -61.471512 322.776428
[R_front_hand]
28 238.847015 -0.006795 2.210259 -8.879457 -10.642941 -26.315098 238.857239
29 238.847015 -0.006795 2.210259 -8.879457 -10.642941 -26.315098 238.857239
[R_weapon_bone]
28 155.664093 0.002503 -0.000030 0.003487 0.001180 -90.988930 155.664078
29 155.664093 0.002503 -0.000030 0.003487 0.001180 -90.988930 155.664078
[R_front_hand01_01]
28 87.624611 14.231146 22.918642 -138.750320 -52.998219 42.777645 91.683487
29 87.624611 14.231146 22.918642 -128.741898 -43.689304 29.450274 91.683487
[R_front_hand02_01]
28 89.356956 14.367283 -19.491137 139.579193 51.434795 45.462971 92.579636
29 89.356956 14.367283 -19.491137 129.909698 42.282326 32.277096 92.579636
[R_front_hand03_01]
28 87.286232 -22.307278 -0.143439 0.065239 -0.451614 -63.269840 90.091743
29 87.286232 -22.307278 -0.143439 -0.036369 -0.452673 -50.456791 90.091743
[R_front_hand01_02]
28 71.020905 0.000060 0.000119 0.001777 0.001534 8.377220 71.020905
29 71.020905 0.000060 0.000119 0.001777 0.001534 8.377220 71.020905
[R_front_hand02_02]
28 71.020844 -0.000030 -0.000119 0.001777 0.001534 8.377220 71.020836
29 71.020844 -0.000030 -0.000119 0.001777 0.001534 8.377220 71.020836
[R_front_hand03_02]
28 71.020905 0.000000 0.000030 0.001777 0.001534 8.377220 71.020905
29 71.020905 0.000000 0.000030 0.001777 0.001534 8.377220 71.020905
[null_rope01_connect]
28 328.732483 0.000000 -0.000238 -154.440796 7.086324 85.698524 328.732483
29 328.732483 0.000000 -0.000238 -151.385086 2.229219 88.533669 328.732483
[Rope1_Seg01]
28 -0.000031 0.000024 0.000095 54.151676 -2.496857 62.361259 0.000103
29 -0.000031 0.000023 0.000093 57.674713 4.558874 64.996033 0.000101
[Rope1_Seg02]
28 139.999863 -0.000179 0.000000 -16.326830 -3.621013 -8.164940 139.999863
29 139.999863 -0.000179 0.000000 -18.176889 -6.006424 -13.837803 139.999863
[Rope1_Seg03]
28 139.999924 0.000060 -0.000060 -17.064508 -0.245894 -22.225880 139.999924
29 139.999924 0.000060 -0.000060 -13.159479 0.104943 -25.536276 139.999924
[Rope1_Seg04]
28 139.999924 -0.000060 -0.000119 -0.961093 -6.200090 6.233552 139.999924
29 139.999924 -0.000060 -0.000119 10.825328 -15.404932 32.592350 139.999924
[Rope1_Seg05]
28 139.999832 0.000119 -0.000060 15.245763 -9.534841 19.285566 139.999832
29 139.999832 0.000119 -0.000060 24.482267 -2.437411 13.228419 139.999832
[Rope1_Seg06]
28 139.999954 0.000119 -0.000060 11.430136 -1.158034 5.171430 139.999954
29 139.999954 0.000119 -0.000060 16.043406 1.034888 4.583966 139.999954
[Rope1_Seg07]
28 139.999985 0.000060 0.000000 10.642383 -0.061157 3.021272 139.999985
29 139.999985 0.000060 0.000000 11.361731 1.318965 2.399534 139.999985
[Rope1_Seg09]
28 121.602913 0.000119 -0.000089 -89.793175 -1.359789 0.847147 121.602913
29 121.602913 0.000119 -0.000089 -89.793175 -1.359789 0.847147 121.602913
[L_mid_hand01]
28 103.859421 1.038730 8.195221 129.753738 -67.188766 -38.008984 104.187431
29 103.859421 1.038730 8.195221 130.544373 -67.584534 -38.866943 104.187431
[L_mid_hand02]
28 105.572853 -4.139662 -10.864139 -168.447937 43.306499 -72.811874 106.211075
29 105.572853 -4.139662 -10.864139 -168.923172 43.409309 -73.498886 106.211075
[L_mid_hand03]
28 104.641464 17.579376 -3.913581 -6.178543 17.755550 74.357056 106.179977
29 104.641464 17.579376 -3.913581 -6.012627 17.808174 74.893669 106.179977
[null_rope02_connect]
28 328.732849 0.000179 -0.000119 -168.521210 72.804237 -39.259426 328.732849
29 328.732849 0.000179 -0.000119 -161.012344 68.516251 -32.944172 328.732849
[Rope2_Seg01]
28 0.000052 0.000095 0.000000 -45.815338 -0.028970 27.470535 0.000109
29 0.000053 0.000093 0.000000 -44.347378 2.529430 10.700244 0.000107
[Rope2_Seg02]
28 139.999741 -0.000060 -0.000119 -0.790375 -14.901781 6.507892 139.999756
29 139.999741 -0.000060 -0.000119 -0.975235 -22.605381 8.617073 139.999756
[Rope2_Seg03]
28 140.000107 0.000030 0.000000 -0.239028 -9.149789 2.263561 140.000107
29 140.000107 0.000030 0.000000 -0.429319 -14.826958 4.422611 140.000107
[Rope2_Seg04]
28 139.999802 0.000000 -0.000060 0.036498 -4.914091 3.341980 139.999802
29 139.999802 0.000000 -0.000060 -0.155738 -6.870512 3.529330 139.999802
[Rope2_Seg05]
28 139.999985 -0.000060 0.000119 1.022798 -3.345515 6.432327 139.999985
29 139.999985 -0.000060 0.000119 0.592629 -3.857259 5.100199 139.999985
[Rope2_Seg06]
28 139.999893 -0.000030 -0.000119 1.322079 -3.100854 5.752334 139.999893
29 139.999893 -0.000030 -0.000119 0.810057 -3.884118 4.785690 139.999893
[Rope2_Seg07]
28 139.999893 0.000060 -0.000060 1.224991 -2.518682 4.250067 139.999893
29 139.999893 0.000060 -0.000060 0.778429 -3.393747 3.690220 139.999893
[Rope2_Seg09]
28 121.338966 0.000089 -0.000060 33.793236 -1.359788 -0.847141 121.338966
29 121.338966 0.000089 -0.000060 33.793236 -1.359788 -0.847141 121.338966
[R_mid_hand01]
28 104.680779 11.144459 -10.335981 -23.980064 42.262295 59.248257 105.778534
29 104.680779 11.144459 -10.335981 -21.077955 43.559666 63.514477 105.778534
[R_mid_hand02]
28 104.070427 2.443552 8.231699 59.529907 -60.717239 27.702402 104.424065
29 104.070427 2.443552 8.231699 56.113037 -63.580833 31.562027 104.424065
[R_mid_hand03]
28 106.028137 -11.221827 -5.996406 -174.753204 14.937834 -67.669373 106.788818
29 106.028137 -11.221827 -5.996406 -175.658295 15.220737 -71.161591 106.788818
[spine02]
28 129.756927 0.001550 0.000119 -1.023899 -3.926965 6.770993 129.756927
29 129.756927 0.001550 0.000119 -1.023899 -3.926964 6.770991 129.756927
[spine03]
28 78.613846 0.087372 -4.898873 1.040680 4.146419 4.212375 78.766380
29 78.613846 0.087372 -4.898873 1.040680 4.146419 4.212375 78.766380
[pelvis]
28 169.435242 0.051022 0.000000 0.019518 -0.190233 -10.721436 169.435257
29 169.435242 0.051022 0.000000 0.019518 -0.190233 -10.721436 169.435257
[null_rope03_connect]
28 -1.257226 -2.466202 137.391083 -68.187500 -59.677425 179.475769 137.418976
29 -1.257226 -2.466202 137.391083 -58.665218 -60.928753 170.149216 137.418976
[null_rope04_connect]
28 -1.259640 -2.480268 -137.844437 -68.187500 -59.677425 179.475769 137.872513
29 -1.259640 -2.480268 -137.844437 -58.665218 -60.928753 170.149216 137.872513
[Rope3_Seg01]
28 -0.000025 0.000067 -0.000057 -115.088882 -63.931808 -105.533043 0.000091
29 -0.000025 0.000072 -0.000059 -113.360489 -54.034241 -107.550087 0.000097
[Rope3_Seg02]
28 139.999924 -0.000119 0.000060 -11.392879 2.222046 -42.806980 139.999924
29 139.999924 -0.000119 0.000060 -6.161626 2.034394 -38.840279 139.999924
[Rope3_Seg03]
28 139.999924 -0.000119 0.000119 -21.388998 5.495279 -24.890589 139.999924
29 139.999924 -0.000119 0.000119 -10.169986 -0.456220 -22.658115 139.999924
[Rope3_Seg04]
28 139.999924 0.000119 0.000000 -25.750170 14.759564 -13.630092 139.999924
29 139.999924 0.000119 0.000000 -25.803078 16.675783 -15.894518 139.999924
[Rope3_Seg05]
28 139.999924 -0.000238 0.000060 -8.402468 7.912586 -2.255700 139.999924
29 139.999924 -0.000238 0.000060 -12.108946 15.226529 -2.922250 139.999924
[Rope3_Seg06]
28 139.999893 -0.000119 -0.000060 -2.943822 3.562052 -0.669014 139.999893
29 139.999893 -0.000119 -0.000060 -3.239126 5.822878 -0.519804 139.999893
[Rope3_Seg07]
28 139.999771 0.000060 -0.000119 -1.533396 2.342078 -0.316617 139.999771
29 139.999771 0.000060 -0.000119 -1.511613 3.665713 -0.125886 139.999771
[Rope3_Seg08]
28 139.999985 -0.000060 0.000000 -0.643264 1.430166 -0.154753 139.999985
29 139.999985 -0.000060 0.000000 -0.567558 2.172884 -0.018994 139.999985
[Rope3_Seg09]
28 90.185997 -0.000179 -0.000060 89.793228 -1.359877 -0.847183 90.185997
29 90.185997 -0.000179 -0.000060 89.793228 -1.359877 -0.847183 90.185997
[R_rear_hand01]
28 103.366196 -6.073594 -10.757982 -174.043243 23.976641 -65.003036 104.101845
29 103.366196 -6.073594 -10.757982 -175.487610 24.273657 -68.532715 104.101845
[R_rear_hand02]
28 100.509819 12.039542 -7.992327 -18.533064 34.659111 62.503956 101.543350
29 100.509819 12.039542 -7.992327 -16.360668 35.627865 66.274078 101.543350
[R_rear_hand03]
28 101.539970 5.215704 5.435467 76.952385 -63.971825 15.629140 101.819031
29 101.539970 5.215704 5.435467 75.232674 -67.112587 17.511602 101.819031
[Rope4_Seg01]
28 0.000000 0.000000 0.000000 -103.839264 -9.250876 110.666313 0.000000
29 0.000000 0.000000 0.000000 -98.730782 -1.902971 113.496452 0.000000
[Rope4_Seg02]
28 139.999985 0.000060 0.000119 -3.658085 8.025335 -2.675940 139.999985
29 139.999985 0.000060 0.000119 -6.963507 3.167224 -9.067569 139.999985
[Rope4_Seg03]
28 139.999924 0.000000 -0.000238 -10.713859 31.598955 -13.606722 139.999924
29 139.999924 0.000000 -0.000238 -34.151794 13.840555 -41.540661 139.999924
[Rope4_Seg04]
28 139.999985 0.000000 0.000119 -0.028902 -9.294456 16.054180 139.999985
29 139.999985 0.000000 0.000119 13.617125 -14.985045 35.898998 139.999985
[Rope4_Seg05]
28 139.999802 -0.000060 -0.000119 0.324396 -2.791092 2.596223 139.999802
29 139.999802 -0.000060 -0.000119 1.965948 -1.090671 5.361993 139.999802
[Rope4_Seg06]
28 139.999924 0.000000 0.000060 0.235898 -0.875954 1.063241 139.999924
29 139.999924 0.000000 0.000060 0.803217 -0.255630 2.126706 139.999924
[Rope4_Seg07]
28 139.999802 0.000000 0.000000 0.221078 -0.543652 0.663350 139.999802
29 139.999802 0.000000 0.000000 0.549090 -0.138161 1.311652 139.999802
[Rope4_Seg08]
28 139.999924 0.000000 0.000119 -1.399122 -0.319940 0.396310 139.999924
29 139.999924 0.000000 0.000119 -1.215531 -0.074212 0.774024 139.999924
[Rope4_Seg09]
28 90.185791 0.000060 0.000060 -135.617828 2.228885 0.850567 90.185791
29 90.185791 0.000060 0.000060 -135.617828 2.228885 0.850567 90.185791
[L_rear_hand01]
28 101.696655 -8.392275 -7.654577 -13.808590 -36.569187 109.397400 102.329041
29 101.696655 -8.392275 -7.654577 -13.120153 -36.794415 108.245636 102.329041
[L_rear_hand02]
28 102.726799 -1.568258 5.773216 72.647583 70.590691 159.713425 102.900848
29 102.726799 -1.568258 5.773216 71.814804 71.499924 158.834518 102.900848
[L_rear_hand03]
28 104.552910 9.721220 -10.420293 -177.121994 -24.509386 -107.501068 105.519653
29 104.552910 9.721220 -10.420293 -177.558807 -24.551926 -106.459045 105.519653
